<?xml version="1.0" encoding="UTF-8"?>
<svg xmlns="http://www.w3.org/2000/svg" xmlns:xlink="http://www.w3.org/1999/xlink" width="152px" height="152px" viewBox="0 0 152 152" version="1.1">
<g id="surface1">
<path style=" stroke:none;fill-rule:evenodd;fill:rgb(0%,0%,0%);fill-opacity:1;" d="M 134.140625 0.0664062 L 134.140625 0 L 147.058594 0 L 147.058594 22.75 C 147.363281 42.003906 145.484375 61.242188 138.597656 75.898438 C 135.105469 83.332031 130.21875 89.804688 123.484375 94.398438 C 120.347656 96.539062 116.898438 98.210938 113.136719 99.390625 L 147.175781 152 L 131.789062 152 L 99.085938 101.460938 L 33.058594 101.460938 L 33.058594 152 L 20.140625 152 L 20.140625 101.460938 L 0 101.460938 L 0 88.539062 L 20.140625 88.539062 L 20.140625 41.800781 C 20.140625 32.636719 23.261719 26.042969 27.976562 21.796875 C 32.488281 17.742188 37.894531 16.339844 41.800781 16.339844 L 134.140625 16.339844 Z M 134.152344 29.261719 L 41.800781 29.261719 C 40.640625 29.261719 38.445312 29.757812 36.621094 31.402344 C 35.003906 32.859375 33.058594 35.761719 33.058594 41.800781 L 33.058594 88.539062 L 98.800781 88.539062 C 106.21875 88.539062 111.839844 86.703125 116.203125 83.726562 C 120.609375 80.722656 124.148438 76.265625 126.90625 70.402344 C 131.871094 59.835938 133.949219 45.425781 134.152344 29.261719 Z M 134.152344 29.261719 "/>
</g>
</svg>
