<svg width="28" height="28" viewBox="0 0 28 28" fill="none" xmlns="http://www.w3.org/2000/svg">
<g filter="url(#filter0_dd_1_147)">
<path fill-rule="evenodd" clip-rule="evenodd" d="M21.65 0.00877192V0H23.35V0.00877192V0.0175096V0.0262133V0.034883V0.043519V0.0521212V0.06069V0.0692253V0.0777274V0.0861964V0.0946323V0.103035V0.111406V0.119744V0.128049V0.136322V0.144563V0.152772V0.160949V0.169094V0.177207V0.185289V0.193339V0.201359V0.209347V0.217304V0.225231V0.233126V0.240991V0.248826V0.25663V0.264404V0.272148V0.279863V0.287547V0.295202V0.302827V0.310423V0.31799V0.325527V0.333036V0.340516V0.347967V0.355389V0.362783V0.370149V0.377487V0.384796V0.392078V0.399332V0.406558V0.413757V0.420928V0.428073V0.43519V0.44228V0.449343V0.45638V0.46339V0.470374V0.477331V0.484262V0.491168V0.498047V0.5049V0.511728V0.518531V0.525308V0.53206V0.538787V0.545489V0.552166V0.558818V0.565446V0.57205V0.578629V0.585184V0.591715V0.598222V0.604706V0.611166V0.617602V0.624015V0.630405V0.636772V0.643116V0.649437V0.655735V0.662011V0.668264V0.674496V0.680705V0.686892V0.693057V0.6992V0.705322V0.711423V0.717502V0.72356V0.729597V0.735613V0.741608V0.747582V0.753536V0.75947V0.765383V0.771276V0.77715V0.783003V0.788837V0.794651V0.800446V0.806221V0.811977V0.817714V0.823432V0.829132V0.834813V0.840475V0.846119V0.851745V0.857352V0.862942V0.868514V0.874068V0.879604V0.885123V0.890625V0.89611V0.901577V0.907028V0.912462V0.917879V0.92328V0.928664V0.934032V0.939385V0.944721V0.950041V0.955346V0.960635V0.965908V0.971167V0.97641V0.981638V0.986851V0.99205V0.997234V1.0024V1.00756V1.0127V1.01783V1.02294V1.02804V1.03312V1.0382V1.04325V1.0483V1.05333V1.05835V1.06336V1.06835V1.07333V1.0783V1.08325V1.0882V1.09313V1.09805V1.10296V1.10785V1.11274V1.11761V1.12247V1.12732V1.13216V1.13699V1.14181V1.14662V1.15142V1.1562V1.16098V1.16575V1.1705V1.17525V1.17999V1.18472V1.18943V1.19414V1.19884V1.20353V1.20822V1.21289V1.21756V1.22221V1.22686V1.2315V1.23613V1.24076V1.24537V1.24998V1.25458V1.25918V1.26376V1.26834V1.27291V1.27748V1.28204V1.28659V1.29114V1.29568V1.30021V1.30474V1.30926V1.31377V1.31828V1.32279V1.32729V1.33178V1.33627V1.34075V1.34523V1.34971V1.35418V1.35864V1.3631V1.36756V1.37201V1.37646V1.38091V1.38535V1.38979V1.39422V1.39865V1.40308V1.40751V1.41193V1.41635V1.42077V1.42518V1.4296V1.43401V1.43842V1.44282V1.44723V1.45163V1.45603V1.46043V1.46483V1.46923V1.47363V1.47802V1.48242V1.48682V1.49121V1.49561V1.5V1.50439V1.50879V1.51318V1.51758V1.52198V1.52637V1.53077V1.53517V1.53957V1.54397V1.54837V1.55277V1.55718V1.56158V1.56599V1.5704V1.57482V1.57923V1.58365V1.58807V1.59249V1.59692V1.60135V1.60578V1.61021V1.61465V1.61909V1.62354V1.62799V1.63244V1.6369V1.64136V1.64582V1.65029V1.65477V1.65925V1.66373V1.66822V1.67271V1.67721V1.68172V1.68623V1.69074V1.69526V1.69979V1.70432V1.70886V1.71341V1.71796V1.72252V1.72709V1.73166V1.73624V1.74082V1.74542V1.75002V1.75463V1.75924V1.76387V1.7685V1.77314V1.77779V1.78244V1.78711V1.79178V1.79647V1.80116V1.80586V1.81057V1.81528V1.82001V1.82475V1.8295V1.83425V1.83902V1.8438V1.84858V1.85338V1.85819V1.86301V1.86784V1.87268V1.87753V1.88239V1.88726V1.89215V1.89704V1.90195V1.90687V1.9118V1.91675V1.9217V1.92667V1.93165V1.93664V1.94165V1.94667V1.9517V1.95675V1.9618V1.96688V1.97196V1.97706V1.98217V1.9873V1.99244V1.9976V2.00277V2.00795V2.01315V2.01836V2.02359V2.02883V2.03409V2.03937V2.04465V2.04996V2.05528V2.06062V2.06597V2.07134V2.07672V2.08212V2.08754V2.09297V2.09842V2.10389V2.10938V2.11488V2.1204V2.12593V2.13149V2.13706V2.14265V2.14826V2.15388V2.15952V2.16519V2.17087V2.17657V2.18229V2.18802V2.19378V2.19955V2.20535V2.21116V2.217V2.22285V2.22872V2.23462V2.24053V2.24646V2.25242V2.25839V2.26439V2.2704V2.27644V2.2825V2.28858V2.29468V2.3008V2.30694V2.31311V2.3193V2.3255V2.33174V2.33799V2.34426V2.35056V2.35688V2.36323V2.3696V2.37598V2.3824V2.38883V2.39529V2.40178V2.40828V2.41482V2.42137V2.42795V2.43455V2.44118V2.44783V2.45451V2.46121V2.46794V2.47469V2.48147V2.48827V2.4951V2.50195V2.50883V2.51574V2.52267V2.52963V2.53661V2.54362V2.55066V2.55772V2.56481V2.57193V2.57907V2.58624V2.59344V2.60067V2.60792V2.6152V2.62251V2.62985V2.63722V2.64461V2.65203V2.65948V2.66696V2.67447V2.68201V2.68958V2.69717V2.7048V2.71245V2.72014V2.72785V2.7356V2.74337V2.75117V2.75901V2.76687V2.77477V2.7827V2.79065V2.79864V2.80666V2.81471V2.82279V2.83091V2.83905V2.84723V2.85544V2.86368V2.87195V2.88026V2.88859V2.89696V2.90537V2.9138V2.92227V2.93077V2.93931V2.94788V2.95648V2.96512V2.97379V2.98249V2.99123V2.99334C23.3898 5.52671 23.1428 8.05842 22.2366 9.98654C21.7768 10.9649 21.1341 11.8163 20.2481 12.4209C19.8352 12.7026 19.3812 12.9226 18.8863 13.0777L23.3654 20H21.3405L17.0375 13.3499L17 13.35H16.9695H16.939H16.9086H16.878H16.8475H16.817H16.7865H16.7559H16.7254H16.6948H16.6643H16.6337H16.6031H16.5725H16.542H16.5113H16.4807H16.4501H16.4195H16.3889H16.3582H16.3276H16.2969H16.2663H16.2356H16.205H16.1743H16.1436H16.1129H16.0823H16.0516H16.0209H15.9902H15.9595H15.9288H15.8981H15.8673H15.8366H15.8059H15.7752H15.7444H15.7137H15.683H15.6522H15.6215H15.5908H15.56H15.5293H15.4985H15.4678H15.437H15.4063H15.3756H15.3448H15.3141H15.2833H15.2526H15.2218H15.191H15.1603H15.1295H15.0988H15.0681H15.0373H15.0066H14.9758H14.9451H14.9143H14.8836H14.8529H14.8221H14.7914H14.7607H14.7299H14.6992H14.6685H14.6378H14.6071H14.5763H14.5456H14.5149H14.4842H14.4535H14.4229H14.3922H14.3615H14.3308H14.3001H14.2695H14.2388H14.2082H14.1775H14.1469H14.1163H14.0856H14.055H14.0244H13.9938H13.9632H13.9326H13.902H13.8714H13.8409H13.8103H13.7797H13.7492H13.7187H13.6881H13.6576H13.6271H13.5966H13.5661H13.5356H13.5052H13.4747H13.4443H13.4138H13.3834H13.353H13.3225H13.2922H13.2618H13.2314H13.201H13.1707H13.1403H13.11H13.0797H13.0494H13.0191H12.9888H12.9585H12.9283H12.8981H12.8678H12.8376H12.8074H12.7772H12.7471H12.7169H12.6868H12.6566H12.6265H12.5964H12.5664H12.5363H12.5062H12.4762H12.4462H12.4162H12.3862H12.3562H12.3263H12.2963H12.2664H12.2365H12.2066H12.1767H12.1469H12.1171H12.0873H12.0575H12.0277H11.9979H11.9682H11.9385H11.9087H11.8791H11.8494H11.8198H11.7901H11.7605H11.7309H11.7014H11.6718H11.6423H11.6128H11.5833H11.5539H11.5244H11.495H11.4656H11.4362H11.4069H11.3775H11.3482H11.3189H11.2897H11.2604H11.2312H11.202H11.1729H11.1437H11.1146H11.0855H11.0564H11.0274H10.9983H10.9693H10.9403H10.9114H10.8825H10.8536H10.8247H10.7958H10.767H10.7382H10.7094H10.6807H10.652H10.6233H10.5946H10.566H10.5374H10.5088H10.4802H10.4517H10.4232H10.3947H10.3663H10.3378H10.3095H10.2811H10.2528H10.2245H10.1962H10.1679H10.1397H10.1115H10.0834H10.0553H10.0272H9.99911H9.97108H9.94308H9.91511H9.88717H9.85926H9.83139H9.80354H9.77573H9.74795H9.7202H9.69249H9.66481H9.63716H9.60954H9.58196H9.55441H9.52689H9.4994H9.47196H9.44454H9.41716H9.38981H9.3625H9.33522H9.30798H9.28077H9.2536H9.22646H9.19936H9.1723H9.14527H9.11827H9.09132H9.06439H9.03751H9.01066H8.98385H8.95708H8.93034H8.90365H8.87698H8.85036H8.82378H8.79723H8.77072H8.74425H8.71782H8.69143H8.66508H8.63876H8.61249H8.58625H8.56006H8.5339H8.50779H8.48171H8.45568H8.42969H8.40373H8.37782H8.35195H8.35V13.35V13.3855V13.4209V13.4564V13.4919V13.5274V13.5628V13.5983V13.6338V13.6693V13.7048V13.7403V13.7758V13.8114V13.8469V13.8824V13.9179V13.9534V13.9889V14.0244V14.0599V14.0954V14.1309V14.1664V14.2019V14.2374V14.2729V14.3084V14.3438V14.3793V14.4147V14.4502V14.4856V14.5211V14.5565V14.5919V14.6273V14.6627V14.6981V14.7335V14.7688V14.8042V14.8395V14.8748V14.9101V14.9454V14.9807V15.0159V15.0512V15.0864V15.1216V15.1568V15.192V15.2271V15.2623V15.2974V15.3325V15.3675V15.4026V15.4376V15.4726V15.5076V15.5426V15.5775V15.6124V15.6473V15.6822V15.717V15.7518V15.7866V15.8213V15.8561V15.8908V15.9254V15.9601V15.9947V16.0293V16.0638V16.0983V16.1328V16.1672V16.2017V16.236V16.2704V16.3047V16.339V16.3732V16.4074V16.4416V16.4757V16.5098V16.5439V16.5779V16.6119V16.6458V16.6797V16.7135V16.7474V16.7811V16.8149V16.8485V16.8822V16.9158V16.9493V16.9828V17.0163V17.0497V17.0831V17.1164V17.1497V17.1829V17.2161V17.2492V17.2823V17.3153V17.3483V17.3812V17.4141V17.4469V17.4797V17.5124V17.5451V17.5777V17.6102V17.6427V17.6752V17.7075V17.7399V17.7721V17.8043V17.8365V17.8686V17.9006V17.9326V17.9645V17.9964V18.0282V18.0599V18.0916V18.1232V18.1547V18.1862V18.2176V18.2489V18.2802V18.3114V18.3426V18.3737V18.4047V18.4356V18.4665V18.4973V18.528V18.5587V18.5893V18.6198V18.6503V18.6807V18.711V18.7412V18.7714V18.8015V18.8315V18.8614V18.8913V18.921V18.9508V18.9804V19.0099V19.0394V19.0688V19.0981V19.1273V19.1565V19.1856V19.2146V19.2435V19.2723V19.301V19.3297V19.3583V19.3867V19.4152V19.4435V19.4717V19.4998V19.5279V19.5559V19.5838V19.6116V19.6393V19.6669V19.6944V19.7218V19.7492V19.7764V19.8036V19.8306V19.8576V19.8845V19.9113V19.938V19.9645V19.991V20H6.65V19.991V19.9645V19.938V19.9113V19.8845V19.8576V19.8306V19.8036V19.7764V19.7492V19.7218V19.6944V19.6669V19.6393V19.6116V19.5838V19.5559V19.5279V19.4998V19.4717V19.4435V19.4152V19.3867V19.3583V19.3297V19.301V19.2723V19.2435V19.2146V19.1856V19.1565V19.1273V19.0981V19.0688V19.0394V19.0099V18.9804V18.9508V18.921V18.8913V18.8614V18.8315V18.8015V18.7714V18.7412V18.711V18.6807V18.6503V18.6198V18.5893V18.5587V18.528V18.4973V18.4665V18.4356V18.4047V18.3737V18.3426V18.3114V18.2802V18.2489V18.2176V18.1862V18.1547V18.1232V18.0916V18.0599V18.0282V17.9964V17.9645V17.9326V17.9006V17.8686V17.8365V17.8043V17.7721V17.7399V17.7075V17.6752V17.6427V17.6102V17.5777V17.5451V17.5124V17.4797V17.4469V17.4141V17.3812V17.3483V17.3153V17.2823V17.2492V17.2161V17.1829V17.1497V17.1164V17.0831V17.0497V17.0163V16.9828V16.9493V16.9158V16.8822V16.8485V16.8149V16.7811V16.7474V16.7135V16.6797V16.6458V16.6119V16.5779V16.5439V16.5098V16.4757V16.4416V16.4074V16.3732V16.339V16.3047V16.2704V16.236V16.2017V16.1672V16.1328V16.0983V16.0638V16.0293V15.9947V15.9601V15.9254V15.8908V15.8561V15.8213V15.7866V15.7518V15.717V15.6822V15.6473V15.6124V15.5775V15.5426V15.5076V15.4726V15.4376V15.4026V15.3675V15.3325V15.2974V15.2623V15.2271V15.192V15.1568V15.1216V15.0864V15.0512V15.0159V14.9807V14.9454V14.9101V14.8748V14.8395V14.8042V14.7688V14.7335V14.6981V14.6627V14.6273V14.5919V14.5565V14.5211V14.4856V14.4502V14.4147V14.3793V14.3438V14.3084V14.2729V14.2374V14.2019V14.1664V14.1309V14.0954V14.0599V14.0244V13.9889V13.9534V13.9179V13.8824V13.8469V13.8114V13.7758V13.7403V13.7048V13.6693V13.6338V13.5983V13.5628V13.5274V13.4919V13.4564V13.4209V13.3855V13.35V13.35H6.6312H6.60875H6.58636H6.56402H6.54173H6.5195H6.49732H6.4752H6.45313H6.43112H6.40916H6.38726H6.36541H6.34362H6.32189H6.30021H6.27859H6.25702H6.23551H6.21406H6.19267H6.17133H6.15005H6.12883H6.10766H6.08656H6.06551H6.04452H6.02358H6.00271H5.98189H5.96114H5.94044H5.9198H5.89923H5.87871H5.85825H5.83785H5.81751H5.79723H5.77702H5.75686H5.73676H5.71673H5.69675H5.67684H5.65699H5.6372H5.61748H5.59781H5.57821H5.55867H5.53919H5.51977H5.50042H5.48113H5.46191H5.44275H5.42365H5.40461H5.38564H5.36674H5.34789H5.32912H5.3104H5.29175H5.27317H5.25465H5.2362H5.21781H5.19949H5.18124H5.16305H5.14493H5.12687H5.10888H5.09096H5.0731H5.05531H5.03759H5.01994H5.00235H4.98483H4.96738H4.95H4.93269H4.91544H4.89826H4.88116H4.86412H4.84715H4.83025H4.81342H4.79666H4.77997H4.76335H4.7468H4.73032H4.71391H4.69757H4.6813H4.6651H4.64898H4.63293H4.61694H4.60103H4.5852H4.56943H4.55374H4.53812H4.52257H4.50709H4.49169H4.47636H4.4611H4.44592H4.43081H4.41578H4.40082H4.38593H4.37112H4.35639H4.34172H4.32714H4.31263H4.29819H4.28383H4.26954H4.25533H4.2412H4.22714H4.21316H4.19926H4.18543H4.17168H4.15801H4.14441H4.13089H4.11745H4.10409H4.0908H4.07759H4.06446H4.05141H4.03844H4.02555H4.01273H4V11.65H4.01273H4.02555H4.03844H4.05141H4.06446H4.07759H4.0908H4.10409H4.11745H4.13089H4.14441H4.15801H4.17168H4.18543H4.19926H4.21316H4.22714H4.2412H4.25533H4.26954H4.28383H4.29819H4.31263H4.32714H4.34172H4.35639H4.37112H4.38593H4.40082H4.41578H4.43081H4.44592H4.4611H4.47636H4.49169H4.50709H4.52257H4.53812H4.55374H4.56943H4.5852H4.60103H4.61694H4.63293H4.64898H4.6651H4.6813H4.69757H4.71391H4.73032H4.7468H4.76335H4.77997H4.79666H4.81342H4.83025H4.84715H4.86412H4.88116H4.89826H4.91544H4.93269H4.95H4.96738H4.98483H5.00235H5.01994H5.03759H5.05531H5.0731H5.09096H5.10888H5.12687H5.14493H5.16305H5.18124H5.19949H5.21781H5.2362H5.25465H5.27317H5.29175H5.3104H5.32912H5.34789H5.36674H5.38564H5.40461H5.42365H5.44275H5.46191H5.48113H5.50042H5.51977H5.53919H5.55867H5.57821H5.59781H5.61748H5.6372H5.65699H5.67684H5.69675H5.71673H5.73676H5.75686H5.77702H5.79723H5.81751H5.83785H5.85825H5.87871H5.89923H5.9198H5.94044H5.96114H5.98189H6.00271H6.02358H6.04452H6.06551H6.08656H6.10766H6.12883H6.15005H6.17133H6.19267H6.21406H6.23551H6.25702H6.27859H6.30021H6.32189H6.34362H6.36541H6.38726H6.40916H6.43112H6.45313H6.4752H6.49732H6.5195H6.54173H6.56402H6.58636H6.60875H6.6312H6.65V11.6324V11.598V11.5636V11.5292V11.4949V11.4606V11.4263V11.3921V11.3579V11.3238V11.2897V11.2556V11.2216V11.1876V11.1536V11.1197V11.0858V11.052V11.0182V10.9844V10.9507V10.9171V10.8834V10.8499V10.8163V10.7828V10.7494V10.716V10.6827V10.6494V10.6161V10.5829V10.5498V10.5167V10.4836V10.4506V10.4176V10.3847V10.3519V10.3191V10.2863V10.2537V10.221V10.1884V10.1559V10.1234V10.091V10.0587V10.0264V9.99412V9.96194V9.92981V9.89775V9.86574V9.83379V9.8019V9.77008V9.73832V9.70661V9.67498V9.6434V9.61189V9.58044V9.54906V9.51775V9.4865V9.45531V9.4242V9.39315V9.36216V9.33125V9.30041V9.26963V9.23893V9.20829V9.17773V9.14724V9.11682V9.08647V9.0562V9.026V8.99588V8.96582V8.93585V8.90595V8.87612V8.84638V8.81671V8.78712V8.7576V8.72817V8.69881V8.66953V8.64034V8.61122V8.58219V8.55324V8.52437V8.49558V8.46688V8.43826V8.40973V8.38128V8.35291V8.32463V8.29644V8.26834V8.24032V8.21239V8.18455V8.1568V8.12913V8.10156V8.07408V8.04669V8.01939V7.99219V7.96507V7.93805V7.91112V7.88429V7.85755V7.83091V7.80436V7.77791V7.75156V7.7253V7.69914V7.67308V7.64712V7.62126V7.59549V7.56983V7.54427V7.51881V7.49345V7.46819V7.44304V7.41799V7.39305V7.36821V7.34347V7.31884V7.29432V7.2699V7.24559V7.22138V7.19729V7.1733V7.14942V7.12566V7.102V7.07845V7.05502V7.03169V7.00848V6.98538V6.96239V6.93952V6.91676V6.89412V6.87159V6.84918V6.82688V6.8047V6.78264V6.7607V6.73887V6.71716V6.69558V6.67411V6.65276V6.63154V6.61043V6.58945V6.56859V6.54785V6.52724V6.50675V6.48638V6.46614V6.44603V6.42604V6.40618V6.38644V6.36684V6.34736V6.32801V6.30878V6.28969V6.27073V6.2519V6.2332V6.21463V6.1962V6.17789V6.15972V6.14169V6.12379V6.10602V6.08839V6.07089V6.05353V6.03631V6.01923V6.00228V5.98547V5.9688V5.95227V5.93588V5.91963V5.90352V5.88755V5.87173V5.85605V5.84051V5.82511V5.80986V5.79475V5.77979V5.76497V5.7503V5.73577V5.7214V5.70717V5.69309V5.67915V5.66537V5.65174V5.63825V5.62492V5.61174V5.59871V5.58583V5.57311V5.56054V5.54812V5.53586V5.52375V5.5118V5.5C6.65 4.29432 7.06096 3.42658 7.68138 2.8682C8.27458 2.33432 8.98593 2.15 9.5 2.15H21.65V2.14826V2.14265V2.13706V2.13149V2.12593V2.1204V2.11488V2.10938V2.10389V2.09842V2.09297V2.08754V2.08212V2.07672V2.07134V2.06597V2.06062V2.05528V2.04996V2.04465V2.03937V2.03409V2.02883V2.02359V2.01836V2.01315V2.00795V2.00277V1.9976V1.99244V1.9873V1.98217V1.97706V1.97196V1.96688V1.9618V1.95675V1.9517V1.94667V1.94165V1.93664V1.93165V1.92667V1.9217V1.91675V1.9118V1.90687V1.90195V1.89704V1.89215V1.88726V1.88239V1.87753V1.87268V1.86784V1.86301V1.85819V1.85338V1.84858V1.8438V1.83902V1.83425V1.8295V1.82475V1.82001V1.81528V1.81057V1.80586V1.80116V1.79647V1.79178V1.78711V1.78244V1.77779V1.77314V1.7685V1.76387V1.75924V1.75463V1.75002V1.74542V1.74082V1.73624V1.73166V1.72709V1.72252V1.71796V1.71341V1.70886V1.70432V1.69979V1.69526V1.69074V1.68623V1.68172V1.67721V1.67271V1.66822V1.66373V1.65925V1.65477V1.65029V1.64582V1.64136V1.6369V1.63244V1.62799V1.62354V1.61909V1.61465V1.61021V1.60578V1.60135V1.59692V1.59249V1.58807V1.58365V1.57923V1.57482V1.5704V1.56599V1.56158V1.55718V1.55277V1.54837V1.54397V1.53957V1.53517V1.53077V1.52637V1.52198V1.51758V1.51318V1.50879V1.50439V1.5V1.49561V1.49121V1.48682V1.48242V1.47802V1.47363V1.46923V1.46483V1.46043V1.45603V1.45163V1.44723V1.44282V1.43842V1.43401V1.4296V1.42518V1.42077V1.41635V1.41193V1.40751V1.40308V1.39865V1.39422V1.38979V1.38535V1.38091V1.37646V1.37201V1.36756V1.3631V1.35864V1.35418V1.34971V1.34523V1.34075V1.33627V1.33178V1.32729V1.32279V1.31828V1.31377V1.30926V1.30474V1.30021V1.29568V1.29114V1.28659V1.28204V1.27748V1.27291V1.26834V1.26376V1.25918V1.25458V1.24998V1.24537V1.24076V1.23613V1.2315V1.22686V1.22221V1.21756V1.21289V1.20822V1.20353V1.19884V1.19414V1.18943V1.18472V1.17999V1.17525V1.1705V1.16575V1.16098V1.1562V1.15142V1.14662V1.14181V1.13699V1.13216V1.12732V1.12247V1.11761V1.11274V1.10785V1.10296V1.09805V1.09313V1.0882V1.08325V1.0783V1.07333V1.06835V1.06336V1.05835V1.05333V1.0483V1.04325V1.0382V1.03312V1.02804V1.02294V1.01783V1.0127V1.00756V1.0024V0.997234V0.99205V0.986851V0.981638V0.97641V0.971167V0.965908V0.960635V0.955346V0.950041V0.944721V0.939385V0.934032V0.928664V0.92328V0.917879V0.912462V0.907028V0.901577V0.89611V0.890625V0.885123V0.879604V0.874068V0.868514V0.862942V0.857352V0.851745V0.846119V0.840475V0.834813V0.829132V0.823432V0.817714V0.811977V0.806221V0.800446V0.794651V0.788837V0.783003V0.77715V0.771276V0.765383V0.75947V0.753536V0.747582V0.741608V0.735613V0.729597V0.72356V0.717502V0.711423V0.705322V0.6992V0.693057V0.686892V0.680705V0.674496V0.668264V0.662011V0.655735V0.649437V0.643116V0.636772V0.630405V0.624015V0.617602V0.611166V0.604706V0.598222V0.591715V0.585184V0.578629V0.57205V0.565446V0.558818V0.552166V0.545489V0.538787V0.53206V0.525308V0.518531V0.511728V0.5049V0.498047V0.491168V0.484262V0.477331V0.470374V0.46339V0.45638V0.449343V0.44228V0.43519V0.428073V0.420928V0.413757V0.406558V0.399332V0.392078V0.384796V0.377487V0.370149V0.362783V0.355389V0.347967V0.340516V0.333036V0.325527V0.31799V0.310423V0.302827V0.295202V0.287547V0.279863V0.272148V0.264404V0.25663V0.248826V0.240991V0.233126V0.225231V0.217304V0.209347V0.201359V0.193339V0.185289V0.177207V0.169094V0.160949V0.152772V0.144563V0.136322V0.128049V0.119744V0.111406V0.103035V0.0946323V0.0861964V0.0777274V0.0692253V0.06069V0.0521212V0.043519V0.034883V0.0262133V0.0175096V0.00877192ZM21.6518 3.85H9.5C9.3474 3.85 9.05875 3.91568 8.81862 4.1318C8.60571 4.32342 8.35 4.70568 8.35 5.5V5.5118V5.52375V5.53586V5.54812V5.56054V5.57311V5.58583V5.59871V5.61174V5.62492V5.63825V5.65174V5.66537V5.67915V5.69309V5.70717V5.7214V5.73577V5.7503V5.76497V5.77979V5.79475V5.80986V5.82511V5.84051V5.85605V5.87173V5.88755V5.90352V5.91963V5.93588V5.95227V5.9688V5.98547V6.00228V6.01923V6.03631V6.05353V6.07089V6.08839V6.10602V6.12379V6.14169V6.15972V6.17789V6.1962V6.21463V6.2332V6.2519V6.27073V6.28969V6.30878V6.32801V6.34736V6.36684V6.38644V6.40618V6.42604V6.44603V6.46614V6.48638V6.50675V6.52724V6.54785V6.56859V6.58945V6.61043V6.63154V6.65276V6.67411V6.69558V6.71716V6.73887V6.7607V6.78264V6.8047V6.82688V6.84918V6.87159V6.89412V6.91676V6.93952V6.96239V6.98538V7.00848V7.03169V7.05502V7.07845V7.102V7.12566V7.14942V7.1733V7.19729V7.22138V7.24559V7.2699V7.29432V7.31884V7.34347V7.36821V7.39305V7.41799V7.44304V7.46819V7.49345V7.51881V7.54427V7.56983V7.59549V7.62126V7.64712V7.67308V7.69914V7.7253V7.75156V7.77791V7.80436V7.83091V7.85755V7.88429V7.91112V7.93805V7.96507V7.99219V8.01939V8.04669V8.07408V8.10156V8.12913V8.1568V8.18455V8.21239V8.24032V8.26834V8.29644V8.32463V8.35291V8.38128V8.40973V8.43826V8.46688V8.49558V8.52437V8.55324V8.58219V8.61122V8.64034V8.66953V8.69881V8.72817V8.7576V8.78712V8.81671V8.84638V8.87612V8.90595V8.93585V8.96582V8.99588V9.026V9.0562V9.08647V9.11682V9.14724V9.17773V9.20829V9.23893V9.26963V9.30041V9.33125V9.36216V9.39315V9.4242V9.45531V9.4865V9.51775V9.54906V9.58044V9.61189V9.6434V9.67498V9.70661V9.73832V9.77008V9.8019V9.83379V9.86574V9.89775V9.92981V9.96194V9.99412V10.0264V10.0587V10.091V10.1234V10.1559V10.1884V10.221V10.2537V10.2863V10.3191V10.3519V10.3847V10.4176V10.4506V10.4836V10.5167V10.5498V10.5829V10.6161V10.6494V10.6827V10.716V10.7494V10.7828V10.8163V10.8499V10.8834V10.9171V10.9507V10.9844V11.0182V11.052V11.0858V11.1197V11.1536V11.1876V11.2216V11.2556V11.2897V11.3238V11.3579V11.3921V11.4263V11.4606V11.4949V11.5292V11.5636V11.598V11.6324V11.65H8.35195H8.37782H8.40373H8.42969H8.45568H8.48171H8.50779H8.5339H8.56006H8.58625H8.61249H8.63876H8.66508H8.69143H8.71782H8.74425H8.77072H8.79723H8.82378H8.85036H8.87698H8.90365H8.93034H8.95708H8.98385H9.01066H9.03751H9.06439H9.09132H9.11827H9.14527H9.1723H9.19936H9.22646H9.2536H9.28077H9.30798H9.33522H9.3625H9.38981H9.41716H9.44454H9.47196H9.4994H9.52689H9.55441H9.58196H9.60954H9.63716H9.66481H9.69249H9.7202H9.74795H9.77573H9.80354H9.83139H9.85926H9.88717H9.91511H9.94308H9.97108H9.99911H10.0272H10.0553H10.0834H10.1115H10.1397H10.1679H10.1962H10.2245H10.2528H10.2811H10.3095H10.3378H10.3663H10.3947H10.4232H10.4517H10.4802H10.5088H10.5374H10.566H10.5946H10.6233H10.652H10.6807H10.7094H10.7382H10.767H10.7958H10.8247H10.8536H10.8825H10.9114H10.9403H10.9693H10.9983H11.0274H11.0564H11.0855H11.1146H11.1437H11.1729H11.202H11.2312H11.2604H11.2897H11.3189H11.3482H11.3775H11.4069H11.4362H11.4656H11.495H11.5244H11.5539H11.5833H11.6128H11.6423H11.6718H11.7014H11.7309H11.7605H11.7901H11.8198H11.8494H11.8791H11.9087H11.9385H11.9682H11.9979H12.0277H12.0575H12.0873H12.1171H12.1469H12.1767H12.2066H12.2365H12.2664H12.2963H12.3263H12.3562H12.3862H12.4162H12.4462H12.4762H12.5062H12.5363H12.5664H12.5964H12.6265H12.6566H12.6868H12.7169H12.7471H12.7772H12.8074H12.8376H12.8678H12.8981H12.9283H12.9585H12.9888H13.0191H13.0494H13.0797H13.11H13.1403H13.1707H13.201H13.2314H13.2618H13.2922H13.3225H13.353H13.3834H13.4138H13.4443H13.4747H13.5052H13.5356H13.5661H13.5966H13.6271H13.6576H13.6881H13.7187H13.7492H13.7797H13.8103H13.8409H13.8714H13.902H13.9326H13.9632H13.9938H14.0244H14.055H14.0856H14.1163H14.1469H14.1775H14.2082H14.2388H14.2695H14.3001H14.3308H14.3615H14.3922H14.4229H14.4535H14.4842H14.5149H14.5456H14.5763H14.6071H14.6378H14.6685H14.6992H14.7299H14.7607H14.7914H14.8221H14.8529H14.8836H14.9143H14.9451H14.9758H15.0066H15.0373H15.0681H15.0988H15.1295H15.1603H15.191H15.2218H15.2526H15.2833H15.3141H15.3448H15.3756H15.4063H15.437H15.4678H15.4985H15.5293H15.56H15.5908H15.6215H15.6522H15.683H15.7137H15.7444H15.7752H15.8059H15.8366H15.8673H15.8981H15.9288H15.9595H15.9902H16.0209H16.0516H16.0823H16.1129H16.1436H16.1743H16.205H16.2356H16.2663H16.2969H16.3276H16.3582H16.3889H16.4195H16.4501H16.4807H16.5113H16.542H16.5725H16.6031H16.6337H16.6643H16.6948H16.7254H16.7559H16.7865H16.817H16.8475H16.878H16.9086H16.939H16.9695H17C17.9764 11.65 18.7158 11.4084 19.2899 11.0166C19.8695 10.6212 20.3354 10.0351 20.6981 9.26346C21.3515 7.87318 21.6249 5.97696 21.6518 3.85Z" fill="black"/>
</g>
<defs>
<filter id="filter0_dd_1_147" x="0" y="0" width="27.3654" height="28" filterUnits="userSpaceOnUse" color-interpolation-filters="sRGB">
<feFlood flood-opacity="0" result="BackgroundImageFix"/>
<feColorMatrix in="SourceAlpha" type="matrix" values="0 0 0 0 0 0 0 0 0 0 0 0 0 0 0 0 0 0 127 0" result="hardAlpha"/>
<feOffset dy="4"/>
<feGaussianBlur stdDeviation="2"/>
<feComposite in2="hardAlpha" operator="out"/>
<feColorMatrix type="matrix" values="0 0 0 0 0 0 0 0 0 0 0 0 0 0 0 0 0 0 0.25 0"/>
<feBlend mode="normal" in2="BackgroundImageFix" result="effect1_dropShadow_1_147"/>
<feColorMatrix in="SourceAlpha" type="matrix" values="0 0 0 0 0 0 0 0 0 0 0 0 0 0 0 0 0 0 127 0" result="hardAlpha"/>
<feOffset dy="4"/>
<feGaussianBlur stdDeviation="2"/>
<feComposite in2="hardAlpha" operator="out"/>
<feColorMatrix type="matrix" values="0 0 0 0 0 0 0 0 0 0 0 0 0 0 0 0 0 0 0.25 0"/>
<feBlend mode="normal" in2="effect1_dropShadow_1_147" result="effect2_dropShadow_1_147"/>
<feBlend mode="normal" in="SourceGraphic" in2="effect2_dropShadow_1_147" result="shape"/>
</filter>
</defs>
</svg>
